<?xml version="1.0" encoding="UTF-8" standalone="yes"?><svg xmlns="http://www.w3.org/2000/svg" xmlns:xlink="http://www.w3.org/1999/xlink" height="158pt" style="width:278px;height:158px;" version="1.1" viewBox="0 0 278 158" width="278pt"><defs/><g><rect fill="#FFFFFF" height="29.1328" style="stroke: #A80036; stroke-width: 1.0;" width="10" x="137" y="110.2969"/><line style="stroke: #A80036; stroke-width: 1.0; stroke-dasharray: 5.0,5.0;" x1="44" x2="44" y1="79.2969" y2="157.5625"/><line style="stroke: #A80036; stroke-width: 1.0; stroke-dasharray: 5.0,5.0;" x1="142" x2="142" y1="79.2969" y2="157.5625"/><line style="stroke: #A80036; stroke-width: 1.0; stroke-dasharray: 5.0,5.0;" x1="238" x2="238" y1="79.2969" y2="157.5625"/><text fill="#000000" font-family="sans-serif" font-size="14" lengthAdjust="spacingAndGlyphs" textLength="73" x="5" y="77">Requester</text><ellipse cx="44.5" cy="10" fill="#FEFECE" rx="8" ry="8" style="stroke: #A80036; stroke-width: 2.0;"/><path d="M44.5,18 L44.5,45 M31.5,26 L57.5,26 M44.5,45 L31.5,60 M44.5,45 L57.5,60 " fill="#FEFECE" style="stroke: #A80036; stroke-width: 2.0;"/><rect fill="#FEFECE" height="30.2969" style="stroke: #A80036; stroke-width: 1.5;" width="96" x="94" y="48"/><text fill="#000000" font-family="sans-serif" font-size="14" lengthAdjust="spacingAndGlyphs" textLength="82" x="101" y="69">Component</text><rect fill="#FEFECE" height="30.2969" style="stroke: #A80036; stroke-width: 1.5;" width="77" x="200" y="48"/><text fill="#000000" font-family="sans-serif" font-size="14" lengthAdjust="spacingAndGlyphs" textLength="63" x="207" y="69">Observer</text><rect fill="#FFFFFF" height="29.1328" style="stroke: #A80036; stroke-width: 1.0;" width="10" x="137" y="110.2969"/><polygon fill="#A80036" points="125,106.2969,135,110.2969,125,114.2969,129,110.2969" style="stroke: #A80036; stroke-width: 1.0;"/><line style="stroke: #A80036; stroke-width: 1.0;" x1="44.5" x2="131" y1="110.2969" y2="110.2969"/><text fill="#000000" font-family="sans-serif" font-size="13" lengthAdjust="spacingAndGlyphs" textLength="59" x="51.5" y="106.2969">message</text><polygon fill="#A80036" points="226.5,135.4297,236.5,139.4297,226.5,143.4297,230.5,139.4297" style="stroke: #A80036; stroke-width: 1.0;"/><line style="stroke: #A80036; stroke-width: 1.0; stroke-dasharray: 2.0,2.0;" x1="142" x2="232.5" y1="139.4297" y2="139.4297"/><text fill="#000000" font-family="sans-serif" font-size="13" lengthAdjust="spacingAndGlyphs" textLength="41" x="149" y="135.4297">inform</text></g></svg>