<?xml version="1.0" encoding="UTF-8" standalone="yes"?><svg xmlns="http://www.w3.org/2000/svg" xmlns:xlink="http://www.w3.org/1999/xlink" height="483pt" style="width:502px;height:483px;" version="1.1" viewBox="0 0 502 483" width="502pt"><defs/><g><rect fill="#FFFFFF" height="227.7969" style="stroke: #FFFFFF; stroke-width: 1.0;" width="10" x="196.5" y="89.2969"/><line style="stroke: #A80036; stroke-width: 1.0;" x1="196.5" x2="196.5" y1="89.2969" y2="317.0938"/><line style="stroke: #A80036; stroke-width: 1.0;" x1="206.5" x2="206.5" y1="89.2969" y2="317.0938"/><line style="stroke: #A80036; stroke-width: 1.0;" x1="196.5" x2="206.5" y1="89.2969" y2="89.2969"/><rect fill="#FFFFFF" height="128.3984" style="stroke: #FFFFFF; stroke-width: 1.0;" width="10" x="196.5" y="345.0938"/><line style="stroke: #A80036; stroke-width: 1.0;" x1="196.5" x2="196.5" y1="345.0938" y2="473.4922"/><line style="stroke: #A80036; stroke-width: 1.0;" x1="206.5" x2="206.5" y1="345.0938" y2="473.4922"/><line style="stroke: #A80036; stroke-width: 1.0;" x1="196.5" x2="206.5" y1="473.4922" y2="473.4922"/><rect fill="#FFFFFF" height="192.6641" style="stroke: #FFFFFF; stroke-width: 1.0;" width="10" x="350.5" y="124.4297"/><line style="stroke: #A80036; stroke-width: 1.0;" x1="350.5" x2="350.5" y1="124.4297" y2="317.0938"/><line style="stroke: #A80036; stroke-width: 1.0;" x1="360.5" x2="360.5" y1="124.4297" y2="317.0938"/><line style="stroke: #A80036; stroke-width: 1.0;" x1="350.5" x2="360.5" y1="124.4297" y2="124.4297"/><rect fill="#FFFFFF" height="77.2656" style="stroke: #FFFFFF; stroke-width: 1.0;" width="10" x="350.5" y="345.0938"/><line style="stroke: #A80036; stroke-width: 1.0;" x1="350.5" x2="350.5" y1="345.0938" y2="422.3594"/><line style="stroke: #A80036; stroke-width: 1.0;" x1="360.5" x2="360.5" y1="345.0938" y2="422.3594"/><line style="stroke: #A80036; stroke-width: 1.0;" x1="350.5" x2="360.5" y1="422.3594" y2="422.3594"/><line style="stroke: #A80036; stroke-width: 1.0;" x1="44" x2="44" y1="79.2969" y2="317.0938"/><line style="stroke: #A80036; stroke-width: 1.0; stroke-dasharray: 1.0,4.0;" x1="44" x2="44" y1="317.0938" y2="345.0938"/><line style="stroke: #A80036; stroke-width: 1.0;" x1="44" x2="44" y1="345.0938" y2="482.4922"/><line style="stroke: #A80036; stroke-width: 1.0;" x1="201" x2="201" y1="79.2969" y2="317.0938"/><line style="stroke: #A80036; stroke-width: 1.0; stroke-dasharray: 1.0,4.0;" x1="201" x2="201" y1="317.0938" y2="345.0938"/><line style="stroke: #A80036; stroke-width: 1.0;" x1="201" x2="201" y1="345.0938" y2="482.4922"/><line style="stroke: #A80036; stroke-width: 1.0;" x1="355" x2="355" y1="79.2969" y2="317.0938"/><line style="stroke: #A80036; stroke-width: 1.0; stroke-dasharray: 1.0,4.0;" x1="355" x2="355" y1="317.0938" y2="345.0938"/><line style="stroke: #A80036; stroke-width: 1.0;" x1="355" x2="355" y1="345.0938" y2="482.4922"/><text fill="#000000" font-family="sans-serif" font-size="14" lengthAdjust="spacingAndGlyphs" textLength="73" x="5" y="77">Requester</text><ellipse cx="44.5" cy="10" fill="#FEFECE" rx="8" ry="8" style="stroke: #A80036; stroke-width: 2.0;"/><path d="M44.5,18 L44.5,45 M31.5,26 L57.5,26 M44.5,45 L31.5,60 M44.5,45 L57.5,60 " fill="#FEFECE" style="stroke: #A80036; stroke-width: 2.0;"/><rect fill="#FEFECE" height="30.2969" style="stroke: #A80036; stroke-width: 1.5;" width="33" x="185" y="48"/><text fill="#000000" font-family="sans-serif" font-size="14" lengthAdjust="spacingAndGlyphs" textLength="19" x="192" y="69">R1</text><rect fill="#FEFECE" height="30.2969" style="stroke: #A80036; stroke-width: 1.5;" width="33" x="339" y="48"/><text fill="#000000" font-family="sans-serif" font-size="14" lengthAdjust="spacingAndGlyphs" textLength="19" x="346" y="69">R2</text><rect fill="#FFFFFF" height="227.7969" style="stroke: #FFFFFF; stroke-width: 1.0;" width="10" x="196.5" y="89.2969"/><line style="stroke: #A80036; stroke-width: 1.0;" x1="196.5" x2="196.5" y1="89.2969" y2="317.0938"/><line style="stroke: #A80036; stroke-width: 1.0;" x1="206.5" x2="206.5" y1="89.2969" y2="317.0938"/><line style="stroke: #A80036; stroke-width: 1.0;" x1="196.5" x2="206.5" y1="89.2969" y2="89.2969"/><rect fill="#FFFFFF" height="128.3984" style="stroke: #FFFFFF; stroke-width: 1.0;" width="10" x="196.5" y="345.0938"/><line style="stroke: #A80036; stroke-width: 1.0;" x1="196.5" x2="196.5" y1="345.0938" y2="473.4922"/><line style="stroke: #A80036; stroke-width: 1.0;" x1="206.5" x2="206.5" y1="345.0938" y2="473.4922"/><line style="stroke: #A80036; stroke-width: 1.0;" x1="196.5" x2="206.5" y1="473.4922" y2="473.4922"/><rect fill="#FFFFFF" height="192.6641" style="stroke: #FFFFFF; stroke-width: 1.0;" width="10" x="350.5" y="124.4297"/><line style="stroke: #A80036; stroke-width: 1.0;" x1="350.5" x2="350.5" y1="124.4297" y2="317.0938"/><line style="stroke: #A80036; stroke-width: 1.0;" x1="360.5" x2="360.5" y1="124.4297" y2="317.0938"/><line style="stroke: #A80036; stroke-width: 1.0;" x1="350.5" x2="360.5" y1="124.4297" y2="124.4297"/><rect fill="#FFFFFF" height="77.2656" style="stroke: #FFFFFF; stroke-width: 1.0;" width="10" x="350.5" y="345.0938"/><line style="stroke: #A80036; stroke-width: 1.0;" x1="350.5" x2="350.5" y1="345.0938" y2="422.3594"/><line style="stroke: #A80036; stroke-width: 1.0;" x1="360.5" x2="360.5" y1="345.0938" y2="422.3594"/><line style="stroke: #A80036; stroke-width: 1.0;" x1="350.5" x2="360.5" y1="422.3594" y2="422.3594"/><polygon fill="#A80036" points="184.5,106.2969,194.5,110.2969,184.5,114.2969,188.5,110.2969" style="stroke: #A80036; stroke-width: 1.0;"/><line style="stroke: #A80036; stroke-width: 1.0;" x1="44.5" x2="190.5" y1="110.2969" y2="110.2969"/><text fill="#000000" font-family="sans-serif" font-size="13" lengthAdjust="spacingAndGlyphs" textLength="41" x="51.5" y="106.2969">create</text><polygon fill="#A80036" points="338.5,120.4297,348.5,124.4297,338.5,124.4297" style="stroke: #A80036; stroke-width: 1.0;"/><line style="stroke: #A80036; stroke-width: 1.0; stroke-dasharray: 2.0,2.0;" x1="206.5" x2="349.5" y1="124.4297" y2="124.4297"/><line style="stroke: #A80036; stroke-width: 1.0;" x1="206.5" x2="248.5" y1="153.5625" y2="153.5625"/><line style="stroke: #A80036; stroke-width: 1.0;" x1="248.5" x2="248.5" y1="153.5625" y2="166.5625"/><line style="stroke: #A80036; stroke-width: 1.0;" x1="206.5" x2="248.5" y1="166.5625" y2="166.5625"/><polygon fill="#A80036" points="216.5,162.5625,206.5,166.5625,216.5,170.5625,212.5,166.5625" style="stroke: #A80036; stroke-width: 1.0;"/><text fill="#000000" font-family="sans-serif" font-size="13" lengthAdjust="spacingAndGlyphs" textLength="120" x="213.5" y="149.4297">inform(created R1)</text><polygon fill="#A80036" points="338.5,191.5625,348.5,195.5625,338.5,199.5625,342.5,195.5625" style="stroke: #A80036; stroke-width: 1.0;"/><line style="stroke: #A80036; stroke-width: 1.0;" x1="44.5" x2="344.5" y1="195.5625" y2="195.5625"/><text fill="#000000" font-family="sans-serif" font-size="13" lengthAdjust="spacingAndGlyphs" textLength="59" x="51.5" y="191.5625">configure</text><line style="stroke: #A80036; stroke-width: 1.0;" x1="360.5" x2="402.5" y1="224.8281" y2="224.8281"/><line style="stroke: #A80036; stroke-width: 1.0;" x1="402.5" x2="402.5" y1="224.8281" y2="237.8281"/><line style="stroke: #A80036; stroke-width: 1.0;" x1="360.5" x2="402.5" y1="237.8281" y2="237.8281"/><polygon fill="#A80036" points="370.5,233.8281,360.5,237.8281,370.5,241.8281,366.5,237.8281" style="stroke: #A80036; stroke-width: 1.0;"/><text fill="#000000" font-family="sans-serif" font-size="13" lengthAdjust="spacingAndGlyphs" textLength="134" x="367.5" y="220.6953">inform(current state)</text><polygon fill="#A80036" points="338.5,262.8281,348.5,266.8281,338.5,270.8281,342.5,266.8281" style="stroke: #A80036; stroke-width: 1.0;"/><line style="stroke: #A80036; stroke-width: 1.0;" x1="44.5" x2="344.5" y1="266.8281" y2="266.8281"/><text fill="#000000" font-family="sans-serif" font-size="13" lengthAdjust="spacingAndGlyphs" textLength="49" x="51.5" y="262.8281">request</text><line style="stroke: #A80036; stroke-width: 1.0;" x1="360.5" x2="402.5" y1="296.0938" y2="296.0938"/><line style="stroke: #A80036; stroke-width: 1.0;" x1="402.5" x2="402.5" y1="296.0938" y2="309.0938"/><line style="stroke: #A80036; stroke-width: 1.0;" x1="360.5" x2="402.5" y1="309.0938" y2="309.0938"/><polygon fill="#A80036" points="370.5,305.0938,360.5,309.0938,370.5,313.0938,366.5,309.0938" style="stroke: #A80036; stroke-width: 1.0;"/><text fill="#000000" font-family="sans-serif" font-size="13" lengthAdjust="spacingAndGlyphs" textLength="134" x="367.5" y="291.9609">inform(current state)</text><line style="stroke: #A80036; stroke-width: 1.0;" x1="360.5" x2="402.5" y1="366.2266" y2="366.2266"/><line style="stroke: #A80036; stroke-width: 1.0;" x1="402.5" x2="402.5" y1="366.2266" y2="379.2266"/><line style="stroke: #A80036; stroke-width: 1.0;" x1="360.5" x2="402.5" y1="379.2266" y2="379.2266"/><polygon fill="#A80036" points="370.5,375.2266,360.5,379.2266,370.5,383.2266,366.5,379.2266" style="stroke: #A80036; stroke-width: 1.0;"/><text fill="#000000" font-family="sans-serif" font-size="13" lengthAdjust="spacingAndGlyphs" textLength="134" x="367.5" y="362.0938">inform(current state)</text><polygon fill="#A80036" points="184.5,404.2266,194.5,408.2266,184.5,412.2266,188.5,408.2266" style="stroke: #A80036; stroke-width: 1.0;"/><line style="stroke: #A80036; stroke-width: 1.0;" x1="44.5" x2="190.5" y1="408.2266" y2="408.2266"/><text fill="#000000" font-family="sans-serif" font-size="13" lengthAdjust="spacingAndGlyphs" textLength="128" x="51.5" y="404.2266">release(Resource 2)</text><polygon fill="#A80036" points="343.5,418.3594,353.5,422.3594,343.5,422.3594" style="stroke: #A80036; stroke-width: 1.0;"/><line style="stroke: #A80036; stroke-width: 1.0; stroke-dasharray: 2.0,2.0;" x1="206.5" x2="354.5" y1="422.3594" y2="422.3594"/><line style="stroke: #A80036; stroke-width: 1.0;" x1="206.5" x2="248.5" y1="451.4922" y2="451.4922"/><line style="stroke: #A80036; stroke-width: 1.0;" x1="248.5" x2="248.5" y1="451.4922" y2="464.4922"/><line style="stroke: #A80036; stroke-width: 1.0;" x1="206.5" x2="248.5" y1="464.4922" y2="464.4922"/><polygon fill="#A80036" points="216.5,460.4922,206.5,464.4922,216.5,468.4922,212.5,464.4922" style="stroke: #A80036; stroke-width: 1.0;"/><text fill="#000000" font-family="sans-serif" font-size="13" lengthAdjust="spacingAndGlyphs" textLength="130" x="213.5" y="447.3594">inform (R2 released)</text></g></svg>